<svg viewBox="0 0 24 24" fill="none" aria-hidden="true">
      <path
        d="M3.75 10.5V20.25H10V15.25H14V20.25H20.25V10.5"
        stroke="currentColor"
        stroke-width="1.5"
        stroke-linecap="square"
      />
      <path
        d="M14.6173 3.75H9.49961L9.20073 8.23319C9.09189 9.86584 10.3868 11.25 12.0231 11.25C13.6419 11.25 14.9305 9.89404 14.8481 8.27736L14.6173 3.75Z"
        stroke="currentColor"
        stroke-width="1.5"
      />
      <path
        d="M9.49958 3.75H3.74958L3.20245 7.85351C2.96265 9.65196 4.37099 11.25 6.18536 11.25C7.76475 11.25 9.08122 10.0255 9.18628 8.44956L9.49958 3.75Z"
        stroke="currentColor"
        stroke-width="1.5"
      />
      <path
        d="M20.1734 3.75H14.6182L14.8568 8.43099C14.9373 10.0106 16.2415 11.25 17.8232 11.25C19.6315 11.25 21.0203 9.64764 20.7632 7.85761L20.1734 3.75Z"
        stroke="currentColor"
        stroke-width="1.5"
      />
    </svg>
